<?xml version="1.0" encoding="UTF-8"?>
<svg id="Layer_1" data-name="Layer 1" xmlns="http://www.w3.org/2000/svg" width="452.891116525893267" height="100" viewBox="0 0 452.891116525893267 100">
  <defs>
    <style>
      .cls-1 {
        fill: #606161;
      }

      .cls-1, .cls-2, .cls-3 {
        fill-rule: evenodd;
        stroke-width: 0px;
      }

      .cls-2 {
        fill: #fed402;
      }

      .cls-3 {
        fill: #fedc3d;
      }
    </style>
  </defs>
  <g>
    <g>
      <polygon class="cls-2" points="51.986190561206058 9.99941313169893 51.98776440765505 80.000188861573406 17.346149078555754 100 .060750474474844 90.019767511403188 .060750474474844 70.019956372976594 17.346149078555754 80.000188861573406 34.666954695134336 69.999968523071402 34.666954695134336 0 51.986190561206058 9.99941313169893"/>
      <path class="cls-3" d="M17.346149078555754,100L0,89.98435596629497l.060750474474844-20.005004831708902,17.28539860408091,10.020837726987338v19.999811138426594Z"/>
    </g>
    <g>
      <polygon class="cls-2" points="102.13538900093863 62.500245912927312 102.13538900093863 87.500737738781027 80.484526338390424 100 58.833663675842217 87.500737738781027 58.833663675842217 62.500737738781027 69.658553998676325 68.749877043535889 69.659537650384664 81.249139304754863 80.484526338390424 87.500737738781027 91.310498678104523 81.249139304754863 91.310498678104523 68.749877043535889 102.13538900093863 62.500245912927312"/>
      <polygon class="cls-3" points="80.484526338390424 50 102.13538900093863 62.500737738781027 91.310498678104523 68.749877043535889 80.484526338390424 62.500245912927312 69.658553998676325 68.749877043535889 58.833663675842217 62.500737738781027 80.484526338390424 50"/>
    </g>
    <g>
      <path class="cls-3" d="M130.284600311420036,87.500737738781027l.024984753397803-12.472418249379189q-10.841317306368182-6.259261237548344-21.675847415946919-12.528073576475435v12.500245912928222l21.650862662549116,12.500245912926403Z"/>
      <polygon class="cls-3" points="130.284600311420036 87.500737738781027 141.109588999424886 81.249139304754863 130.261582861438001 75.000491825854624 130.284600311420036 62.500245912926403 151.934577687430647 75.000491825854624 151.934577687430647 87.500737738781027 130.284600311420036 100 130.284600311420036 87.500737738781027"/>
      <polygon class="cls-2" points="130.284600311420036 50 130.284600311420036 62.526214318034363 141.109588999424886 68.749877043535889 151.934577687430647 62.500245912926403 130.284600311420036 50"/>
      <polygon class="cls-3" points="108.63373764887092 62.500245912926403 119.458640886992725 68.749877043535889 130.284600311420036 62.526214318034363 130.284600311420036 50 108.63373764887092 62.500245912926403"/>
      <polygon class="cls-2" points="130.284600311420036 87.500737738781027 119.458640886992725 81.249139304754863 108.63373764887092 87.500737738781027 130.284600311420036 100 130.284600311420036 87.500737738781027"/>
    </g>
    <g>
      <polygon class="cls-2" points="201.734192307564626 74.999754084654342 201.734192307564626 62.499877042326261 180.083608504533004 50 158.432926335362936 62.499877042326261 158.432926335362936 87.500122957673739 180.083608504533004 100 190.909097138325706 93.750799224874754 169.258516647517354 81.24079047028863 169.258516647517354 68.750553309528186 180.083608504533004 62.499877042326261 190.909097138325706 68.750553309528186 190.909097138325706 81.249938521163131 201.734192307564626 74.999754084654342"/>
      <polygon class="cls-3" points="180.083608504533004 50 201.734192307564626 62.499877042326261 190.909097138325706 68.750553309528186 180.083608504533004 62.499877042326261 169.258516647517354 68.750553309528186 158.432926335362936 62.499877042326261 180.083608504533004 50"/>
    </g>
    <g>
      <path class="cls-2" d="M208.232540955496916,60.000141645065924v35.000102299213722l8.660730164575398,4.999756055720354v-14.999897700785368l8.659943247544106,4.999677364015952,17.320201261899456-9.999354728033722v-19.999889831615292l-8.660258014356259,4.999283905501215v9.999354728033722l-8.659943247543197,5.001251198080354-8.659943247544106-5.001251198080354v-9.999354728033722l-8.660730164575398-4.999677364016861Z"/>
      <polygon class="cls-3" points="225.55321436761642 50 208.232540955496916 60.000535103581569 216.893271120072313 64.999819009082785 225.55321436761642 60.000141645065924 234.213157615159616 64.999819009082785 242.873415629515875 60.000535103581569 225.55321436761642 50"/>
    </g>
    <g>
      <polygon class="cls-2" points="249.371764277448165 70.000078692445641 249.371764277448165 95.000668885792948 258.031789301646313 100 258.031789301646313 75.000590193347307 249.371764277448165 70.000078692445641"/>
      <polygon class="cls-2" points="284.012651298703531 70.000078692445641 284.012651298703531 95.000668885792948 275.352635044653653 100 275.352635044653653 75.000590193347307 284.012651298703531 70.000078692445641"/>
      <path class="cls-3" d="M266.691814325844462,60.000236077338741l-8.660025024198148,5.000511500900757v-15.000747578239498l-8.660025024198148,5.031201554962536v14.968877137483105l8.660025024198148,5.000511500901666,8.660025024198148-5.000511500901666,8.660820718809191,5.000511500901666,8.660016254049879-5.000511500901666-17.32083697285907-9.9998426151069Z"/>
    </g>
    <g>
      <path class="cls-2" d="M290.51099994663582,89.999779661497087V19.999633722827639L325.152461987033348,0l34.641633194872156,19.999633722827639-17.321610405576394,10.001027292681101-17.320022789295763-10.001027292681101-17.321439251100855,10.001027292681101v69.99933898449126l-17.320022789296672-10.000220338502913Z"/>
      <polygon class="cls-3" points="342.472484776329111 30.00066101550874 359.794095181905504 19.999633722827639 325.152461987033348 0 290.51099994663582 19.999633722827639 307.831022735932493 30.00066101550874 325.152461987033348 19.999633722827639 342.472484776329111 30.00066101550874"/>
      <path class="cls-2" d="M359.792521335419224,0l34.641448270604087,19.999633722827639v70.000145938669448l-17.320022789296672,10.000220338502913V30.00066101550874l-17.321425481307415-10.001027292681101V0Z"/>
      <polygon class="cls-3" points="377.113946816726639 30.00066101550874 394.433969606023311 19.999633722827639 359.792521335419224 0 325.150888140583447 19.999633722827639 342.472484776329111 30.00066101550874 359.792521335419224 19.999633722827639 377.113946816726639 30.00066101550874"/>
    </g>
    <polygon class="cls-2" points="418.252075061594041 20.000314767308737 435.571202334598638 9.999357048613092 435.571202334598638 90.000618138848949 418.252075061594041 100 418.252075061594041 20.000314767308737"/>
    <path class="cls-3" d="M400.9323182539556,29.999672321173421L452.891116525893267,0v20.000314767308737c-17.319914191294629,9.999357553864684-34.639041464299225,20.000314767307827-51.958798271937667,29.999672826424103v-20.000315272559419Z"/>
  </g>
  <g>
    <g>
      <polygon class="cls-1" points="184.413731853973331 73.749188487340689 184.413731853973331 78.749286852511432 180.083559321463326 81.249139304754863 175.753386788953321 78.749286852511432 175.753386788953321 73.749286852511432 177.91836485352087 74.999114713462404 180.083559321463326 76.011244377809817 180.083559321463326 78.749286852511432 180.245629243318035 76.011244377809817 182.248753789405782 74.999114713462404 184.413731853973331 73.749188487340689"/>
      <polygon class="cls-1" points="180.083559321463326 71.249139304754863 184.413731853973331 73.749286852511432 182.248753789405782 74.999114713462404 180.083559321464236 79.500374812591872 177.91836485352087 74.999114713462404 175.753386788953321 73.749286852511432 180.083559321463326 71.249139304754863"/>
    </g>
    <g>
      <polygon class="cls-2" points="184.413731853973331 73.749188487340689 184.413731853973331 78.749286852511432 180.083559321463326 81.249139304754863 175.753386788953321 78.749286852511432 175.753386788953321 73.749286852511432 177.91836485352087 74.999114713462404 180.083559321463326 76.011244377809817 180.083559321463326 78.749286852511432 180.245629243318035 76.011244377809817 182.248753789405782 74.999114713462404 184.413731853973331 73.749188487340689"/>
      <polygon class="cls-2" points="180.083559321463326 71.249139304754863 184.413731853973331 73.749286852511432 182.248753789405782 74.999114713462404 180.083559321464236 79.500374812591872 177.91836485352087 74.999114713462404 175.753386788953321 73.749286852511432 180.083559321463326 71.249139304754863"/>
    </g>
  </g>
</svg>